# xmcd
#
# Track frame offsets: 
#        150
#        10301
#        22957
#        33443
#        45229
#        59943
#        74964
#        88226
#        102063
#        113907
#        127174
#        140606
#        154095
#        168803
#        182872
#        197442
#        211025
#        224115
#        239012
#        253201
#
# Disc length: 3557 seconds
#
# Revision: 2
# Processed by: cddbd v1.5.2PL0 Copyright (c) Steve Scherf et al.
# Submitted via: ExactAudioCopyFreeDBPlugin 1.0
#
DISCID=320de314
DTITLE=Richard Berry, Barbecue Bob - ABC Of The Blues - Vol. 02 Richar
DTITLE=d Berry, Barbecue Bob
DYEAR=2010
DGENRE=Blues
TTITLE0=Richard Berry - Louie, Louie
TTITLE1=Richard Berry - Sweet Sugar You
TTITLE2=Richard Berry - You Look So Good
TTITLE3=Richard Berry - Mess Around
TTITLE4=Richard Berry - No Room
TTITLE5=Richard Berry - I Want You To Be My Girl
TTITLE6=Richard Berry - I'm Your Fool
TTITLE7=Richard Berry - Walk Right In
TTITLE8=Richard Berry - Give It Up
TTITLE9=Richard Berry - Have Love, Will Travel
TTITLE10=Barbecue Bob - Yo Yo Blues
TTITLE11=Barbecue Bob - California Blues
TTITLE12=Barbecue Bob - Motherless Chiles Blues
TTITLE13=Barbecue Bob - She's Coming Back Some Cold Rainy Day
TTITLE14=Barbecue Bob - Barbecue Blues
TTITLE15=Barbecue Bob - Ease It To Me Blues
TTITLE16=Barbecue Bob - Chocolate To The Bone
TTITLE17=Barbecue Bob - Good Time Rounder
TTITLE18=Barbecue Bob - Atlanta Moan
TTITLE19=Barbecue Bob - Diddle-Da-Diddle
EXTD=
EXTT0=
EXTT1=
EXTT2=
EXTT3=
EXTT4=
EXTT5=
EXTT6=
EXTT7=
EXTT8=
EXTT9=
EXTT10=
EXTT11=
EXTT12=
EXTT13=
EXTT14=
EXTT15=
EXTT16=
EXTT17=
EXTT18=
EXTT19=
PLAYORDER=
